<?xml version="1.0" standalone="no"?>
<!DOCTYPE svg PUBLIC "-//W3C//DTD SVG 20010904//EN"
 "http://www.w3.org/TR/2001/REC-SVG-20010904/DTD/svg10.dtd">
<svg version="1.0" xmlns="http://www.w3.org/2000/svg"
 width="1024.000000pt" height="1024.000000pt" viewBox="0 0 1024.000000 1024.000000"
 preserveAspectRatio="xMidYMid meet">

<g transform="translate(0.000000,1024.000000) scale(0.100000,-0.100000)"
fill="#000000" stroke="none">
<path d="M4200 9494 c-14 -2 -59 -9 -100 -15 -319 -46 -664 -201 -940 -422
-41 -33 -269 -254 -507 -491 l-432 -431 2 -140 2 -140 -33 -64 c-47 -89 -111
-154 -195 -196 -109 -54 -168 -48 -276 30 -27 20 -46 25 -93 25 l-60 0 -229
-221 c-256 -247 -260 -253 -239 -353 11 -53 14 -56 558 -604 314 -317 559
-556 575 -562 42 -15 124 -12 160 6 38 19 412 387 433 426 17 32 18 95 3 134
-5 16 -32 51 -59 80 -111 117 -90 214 83 381 85 82 177 133 243 133 66 0 135
-43 279 -176 74 -68 146 -126 160 -130 55 -14 124 1 167 37 l42 33 170 -177
c406 -419 841 -871 970 -1006 76 -80 218 -229 316 -331 l177 -185 5 -81 c4
-64 10 -91 30 -125 15 -25 236 -251 505 -515 537 -530 1297 -1292 1787 -1794
180 -184 345 -346 367 -359 l39 -23 0 -112 c0 -70 -6 -131 -15 -162 -21 -71
-77 -138 -139 -169 l-52 -25 -2139 2 c-2021 3 -2142 4 -2172 21 -46 25 -72 55
-85 102 -9 30 -11 539 -9 2062 l3 2022 -22 46 c-32 67 -85 98 -170 103 -95 6
-152 -25 -193 -103 -21 -40 -21 -41 -25 -2068 -4 -1624 -2 -2040 8 -2090 50
-242 226 -426 466 -487 76 -20 120 -20 2218 -20 2386 0 2211 -5 2366 71 114
57 238 179 291 289 58 120 69 187 69 438 l0 218 93 83 c158 143 268 254 290
296 31 58 31 194 0 250 -24 44 -177 197 -673 670 -775 740 -1407 1348 -1785
1715 -116 113 -231 221 -255 241 -55 45 -123 69 -193 69 l-53 0 -599 587
c-330 323 -710 696 -845 830 l-245 243 98 98 c104 104 122 138 111 205 -5 32
-25 56 -126 155 -189 184 -251 272 -250 352 2 150 249 407 505 525 132 61 252
87 402 88 263 1 410 -73 721 -364 137 -129 222 -149 331 -76 68 46 106 121
100 198 -3 31 -12 69 -20 85 -21 40 -404 407 -502 480 -253 191 -613 335 -945
380 -94 12 -403 17 -470 8z"/>
<path d="M5145 7425 c-22 -8 -52 -28 -67 -44 -30 -34 -52 -102 -44 -136 3 -13
104 -117 223 -231 120 -115 355 -343 523 -506 l305 -297 265 -1 c280 0 310 4
401 50 51 27 150 119 182 169 12 20 33 70 47 111 l26 75 459 3 c448 2 459 2
502 -19 55 -27 107 -88 123 -145 10 -35 12 -264 8 -1055 l-4 -1011 200 -194
201 -194 8 888 c10 1210 6 1610 -17 1682 -36 111 -86 192 -165 271 -82 81
-148 124 -251 161 -64 23 -73 23 -569 28 l-504 5 -22 65 c-59 175 -142 262
-298 315 l-76 25 -708 0 c-584 -1 -715 -3 -748 -15z"/>
<path d="M4095 4514 c-151 -78 -152 -278 -3 -355 35 -18 66 -19 570 -19 494 0
536 2 573 19 80 36 136 136 121 214 -10 51 -61 116 -109 138 -40 17 -73 19
-582 19 -470 0 -544 -2 -570 -16z"/>
<path d="M4115 3368 c-169 -59 -183 -278 -24 -365 32 -17 84 -18 1037 -21 684
-2 1016 1 1043 8 44 12 103 60 123 99 22 43 28 98 15 143 -14 55 -80 122 -134
137 -54 15 -2017 14 -2060 -1z"/>
</g>
</svg>
